<?xml version="1.0" encoding="UTF-8" standalone="no"?><!DOCTYPE svg PUBLIC "-//W3C//DTD SVG 1.1//EN" "http://www.w3.org/Graphics/SVG/1.1/DTD/svg11.dtd"><svg width="100%" height="100%" viewBox="0 0 2079 2693" version="1.1" xmlns="http://www.w3.org/2000/svg" xmlns:xlink="http://www.w3.org/1999/xlink" xml:space="preserve" xmlns:serif="http://www.serif.com/" style="fill-rule:evenodd;clip-rule:evenodd;stroke-linecap:round;stroke-linejoin:round;stroke-miterlimit:1.5;"><rect id="Artboard_Type_A" x="0" y="0" width="2078.74" height="2692.91" style="fill:none;"/><rect x="539.734" y="1024.43" width="283.465" height="94.488" style="fill:#968c8c;"/><rect x="539.734" y="1307.89" width="283.465" height="94.488" style="fill:#968c8c;"/><path d="M539.734,1307.89l0,-188.976" style="fill:none;stroke:#000;stroke-width:1px;"/><path d="M823.199,1118.92l-0,188.976" style="fill:none;stroke:#000;stroke-width:1px;"/><path d="M539.734,1024.43l0,-47.244c21.549,-68.485 37.953,-146.065 47.244,-236.221l94.489,-47.244l94.488,47.244c-0.971,78.74 14.887,157.48 47.244,236.221l-0,47.244" style="fill:none;stroke:#000;stroke-width:1px;"/><path d="M539.734,1402.38l0,478.347" style="fill:none;stroke:#000;stroke-width:1px;"/><path d="M823.199,1874.82l-0,-472.441" style="fill:none;stroke:#000;stroke-width:1px;"/><rect x="398.002" y="1874.82" width="566.929" height="614.173"/><g transform="matrix(166.667,0,0,166.667,1778.21,1234.99)"></g><text x="1056.21px" y="1234.99px" style="font-family:'ArialRoundedMTBold', 'Arial Rounded MT Bold', sans-serif;font-size:166.667px;">SOUR<tspan x="1543.68px 1667.05px " y="1234.99px 1234.99px ">CE</tspan></text><g transform="matrix(166.667,0,0,166.667,1469.54,895.603)"></g><text x="1056.21px" y="895.603px" style="font-family:'ArialRoundedMTBold', 'Arial Rounded MT Bold', sans-serif;font-size:166.667px;">SINK</text><g transform="matrix(166.667,0,0,166.667,1681.37,1698.25)"></g><text x="1056.21px" y="1698.25px" style="font-family:'ArialRoundedMTBold', 'Arial Rounded MT Bold', sans-serif;font-size:166.667px;">SHIELD</text><g transform="matrix(335.678,0,0,335.678,1594.18,478.997)"></g><text x="480.605px" y="478.997px" style="font-family:'ArialRoundedMTBold', 'Arial Rounded MT Bold', sans-serif;font-size:335.678px;">T<tspan x="677.619px 859.553px " y="478.997px 478.997px ">yp</tspan>e A</text></svg>