<?xml version="1.0" encoding="UTF-8" standalone="no"?><!DOCTYPE svg PUBLIC "-//W3C//DTD SVG 1.1//EN" "http://www.w3.org/Graphics/SVG/1.1/DTD/svg11.dtd"><svg width="100%" height="100%" viewBox="0 0 2481 3508" version="1.1" xmlns="http://www.w3.org/2000/svg" xmlns:xlink="http://www.w3.org/1999/xlink" xml:space="preserve" xmlns:serif="http://www.serif.com/" style="fill-rule:evenodd;clip-rule:evenodd;stroke-linecap:round;stroke-linejoin:round;stroke-miterlimit:1.5;"><rect x="897.638" y="897.638" width="283.465" height="94.488" style="fill:#968c8c;"/><rect x="897.638" y="1181.1" width="283.465" height="94.488" style="fill:#968c8c;"/><path d="M897.638,1181.1l-0,-188.976" style="fill:none;stroke:#000;stroke-width:1px;"/><path d="M1181.1,992.126l0,188.976" style="fill:none;stroke:#000;stroke-width:1px;"/><path d="M897.638,897.638l-0,-47.244c21.549,-68.485 37.953,-146.065 47.244,-236.221l94.488,-47.244l94.488,47.244c-0.971,78.74 14.887,157.481 47.244,236.221l0,47.244" style="fill:none;stroke:#000;stroke-width:1px;"/><path d="M897.638,1275.59l-0,478.346" style="fill:none;stroke:#000;stroke-width:1px;"/><path d="M1181.1,1748.03l0,-472.44" style="fill:none;stroke:#000;stroke-width:1px;"/><rect x="755.906" y="1748.03" width="566.929" height="614.173"/><g transform="matrix(166.667,0,0,166.667,1827.44,768.313)"></g><text x="1414.11px" y="768.313px" style="font-family:'ArialRoundedMTBold', 'Arial Rounded MT Bold', sans-serif;font-size:166.667px;">SINK</text><g transform="matrix(166.667,0,0,166.667,2136.12,1108.2)"></g><text x="1414.11px" y="1108.2px" style="font-family:'ArialRoundedMTBold', 'Arial Rounded MT Bold', sans-serif;font-size:166.667px;">SOUR<tspan x="1901.58px 2024.95px " y="1108.2px 1108.2px ">CE</tspan></text><g transform="matrix(166.667,0,0,166.667,2039.28,1571.46)"></g><text x="1414.11px" y="1571.46px" style="font-family:'ArialRoundedMTBold', 'Arial Rounded MT Bold', sans-serif;font-size:166.667px;">SHIELD</text><g transform="matrix(335.678,0,0,335.678,1882.9,362.493)"></g><text x="769.327px" y="362.493px" style="font-family:'ArialRoundedMTBold', 'Arial Rounded MT Bold', sans-serif;font-size:335.678px;">T<tspan x="966.341px 1148.28px " y="362.493px 362.493px ">yp</tspan>e A</text></svg>